<svg width="73" height="55" viewBox="0 0 73 55" fill="none" xmlns="http://www.w3.org/2000/svg">
<g clip-path="url(#clip0_2942_11)">
<path d="M34.875 22.244H33.875V19.691C33.875 11.923 27.76 5.604 20.245 5.604C12.73 5.604 6.615 11.924 6.615 19.691V22.244H5.532C2.482 22.244 0 24.726 0 27.776V48.96C0 52.01 2.482 54.492 5.532 54.492H34.875C37.925 54.492 40.407 52.01 40.407 48.96V27.776C40.407 24.726 37.925 22.244 34.875 22.244ZM8.615 19.691C8.615 13.026 13.832 7.604 20.245 7.604C26.658 7.604 31.875 13.026 31.875 19.691V22.244H28.757V19.692C28.757 14.848 24.939 10.907 20.245 10.907C15.551 10.907 11.732 14.848 11.732 19.692V22.244H8.614L8.615 19.691ZM26.757 19.691V22.243H13.732V19.691C13.732 15.95 16.653 12.906 20.245 12.906C23.837 12.906 26.757 15.949 26.757 19.691ZM38.408 48.96C38.408 50.908 36.824 52.492 34.876 52.492H5.532C3.584 52.492 2 50.908 2 48.96V27.776C2 25.828 3.584 24.244 5.532 24.244H34.875C36.823 24.244 38.407 25.828 38.407 27.776L38.408 48.96Z" fill="white"/>
<path d="M25.1775 35.8401C25.1775 32.5601 22.2515 31.3701 20.2845 31.3701C18.3625 31.3701 15.3125 32.5831 15.3125 35.8401C15.3125 38.1161 16.4755 39.2091 17.4355 39.8311L16.3895 44.0181C16.2845 44.4361 16.3755 44.8711 16.6405 45.2111C16.9065 45.5511 17.3055 45.7461 17.7365 45.7461H22.7525C23.1835 45.7461 23.5825 45.5511 23.8475 45.2121C24.1135 44.8721 24.2055 44.4381 24.1005 44.0191L23.0535 39.8311C24.0115 39.2111 25.1775 38.1191 25.1775 35.8401ZM21.4475 38.4581L20.7525 38.8731L21.9715 43.7481H18.5185L19.5475 39.6281L19.7215 38.8371L19.0475 38.4621C17.9995 37.8791 17.3125 37.3801 17.3125 35.8411C17.3125 33.4381 20.2545 33.3711 20.2845 33.3711C20.3135 33.3711 23.1775 33.3991 23.1775 35.8411C23.1775 37.3801 22.4905 37.8781 21.4475 38.4581Z" fill="white"/>
<path d="M68.7954 0H23.0434C20.9364 0 19.2194 1.684 19.0254 3.821C19.4294 3.788 19.8334 3.757 20.2454 3.757C20.5094 3.757 20.7664 3.784 21.0264 3.798C21.2074 2.776 22.0414 1.999 23.0434 1.999H68.7954C69.9294 1.999 70.8514 2.992 70.8514 4.213V8.575H31.3024C31.8904 9.195 32.4304 9.864 32.9154 10.575H70.8524V16.457H35.3994C35.5304 17.109 35.6094 17.779 35.6604 18.457H70.8534V38.048C70.8534 39.269 69.9314 40.262 68.7974 40.262H42.2554V42.262H68.7974C71.0344 42.262 72.8534 40.372 72.8534 38.048V4.214C72.8534 1.89 71.0344 0 68.7974 0H68.7954Z" fill="white"/>
</g>
<defs>
<clipPath id="clip0_2942_11">
<rect width="72.852" height="54.492" fill="white"/>
</clipPath>
</defs>
</svg>
