<svg width="50" height="59" viewBox="0 0 50 59" fill="none" xmlns="http://www.w3.org/2000/svg">
<g clip-path="url(#clip0_2942_8)">
<path d="M30.2878 29.3509C30.6108 29.3749 31.0428 29.4869 31.3718 29.5449C32.7198 29.7829 33.4588 29.7829 34.5488 28.9379C34.2398 28.5269 33.9348 28.1599 33.6428 27.7319C33.3658 27.3259 32.9548 25.5619 32.4658 25.5819C31.9378 25.6039 31.3398 25.8579 30.9188 25.1739L30.8428 25.0519C30.7328 25.0369 30.6178 25.1149 30.5138 25.1679C29.1108 24.9869 27.8528 23.8859 26.4658 24.0419C25.6048 24.1389 24.9128 24.5789 24.0188 24.6129C21.8458 24.6949 19.9408 23.8169 17.9708 25.2459C17.1308 25.8549 16.3358 26.5279 15.9748 27.5849C15.8688 27.8959 15.9928 28.4139 15.9028 28.7469C15.7988 29.3799 15.6498 29.9849 15.4958 30.6059C15.2948 31.4229 14.8048 32.1469 14.5918 32.9519C14.9878 34.3409 15.8658 34.1119 17.1278 34.1499C17.2018 34.1519 17.2908 34.0129 17.3218 33.9539C17.3348 33.6729 16.5138 33.2879 16.2618 33.1609C17.2468 32.7899 17.9458 32.3589 18.5988 31.4929C19.1918 32.3669 19.8248 33.2689 20.4968 34.0809C20.9368 34.1299 22.9858 34.2979 23.1488 33.8519C23.0598 33.3729 22.2868 33.3779 21.9008 33.3419C21.8638 32.5709 21.8088 31.7329 21.7988 30.9659C22.4578 30.9059 23.1768 30.9169 23.7888 30.8539C23.6938 31.4229 23.5808 32.2149 23.5958 32.7819C23.8318 34.1229 24.5948 34.1259 25.7768 34.0989C26.0318 34.0929 26.3068 34.0989 26.5158 33.9299C26.6458 33.6839 26.4208 33.4909 26.2048 33.4389C24.4948 33.0329 25.5218 32.0679 26.2938 31.2189C26.8668 32.2589 27.5228 32.7979 28.4008 33.5339C29.2908 34.2799 29.7958 34.1379 30.8778 34.0909C31.0678 34.0829 31.5978 34.0979 31.7198 33.9769C31.7288 33.7949 31.5748 33.6559 31.4528 33.5149C31.2498 33.4389 30.9388 33.3449 30.7668 33.2689C30.1968 33.0159 29.4778 32.1099 29.2448 31.5459C28.9588 30.8519 28.7528 30.1229 28.4468 29.4009C29.0558 29.4309 29.6828 29.3059 30.2858 29.3509H30.2878Z" fill="white"/>
<path d="M48.14 8.78424C36.231 8.78424 25.297 0.300238 25.188 0.214238C24.826 -0.0707617 24.314 -0.0707617 23.952 0.214238C23.843 0.300238 12.909 8.78424 1 8.78424C0.448 8.78424 0 9.23224 0 9.78424V25.9552C0 48.5302 23.969 58.0182 24.211 58.1122C24.327 58.1562 24.449 58.1792 24.57 58.1792C24.691 58.1792 24.814 58.1572 24.929 58.1122C25.631 57.8422 42.188 51.3122 47.531 35.7422C47.636 35.4362 47.587 35.0992 47.399 34.8362C47.211 34.5732 46.908 34.4172 46.585 34.4172H37.675C37.292 34.4172 36.942 34.6362 36.775 34.9812C34.485 39.7152 29.808 42.6552 24.57 42.6552C17.089 42.6552 11.003 36.5692 11.003 29.0882C11.003 21.6072 17.089 15.5212 24.57 15.5212C29.808 15.5212 34.484 18.4622 36.775 23.1962C36.942 23.5412 37.292 23.7602 37.675 23.7602H48.14C48.692 23.7602 49.14 23.3122 49.14 22.7602V9.78224C49.14 9.23024 48.692 8.78224 48.14 8.78224V8.78424ZM47.14 21.7622H38.288C35.57 16.6632 30.37 13.5232 24.57 13.5232C15.986 13.5232 9.003 20.5062 9.003 29.0902C9.003 37.6742 15.986 44.6572 24.57 44.6572C30.371 44.6572 35.57 41.5172 38.288 36.4182H45.146C40.1 48.9712 26.921 55.0902 24.57 56.0972C21.649 54.8442 1.999 45.6692 1.999 25.9562V10.7672C12.681 10.3882 22.093 4.05724 24.569 2.25124C27.046 4.05724 36.457 10.3872 47.139 10.7672V21.7632L47.14 21.7622Z" fill="white"/>
</g>
<defs>
<clipPath id="clip0_2942_8">
<rect width="49.14" height="58.179" fill="white"/>
</clipPath>
</defs>
</svg>
