<svg width="63" height="58" viewBox="0 0 63 58" fill="none" xmlns="http://www.w3.org/2000/svg">
<g clip-path="url(#clip0_2942_15)">
<path d="M38.758 54.152C38.006 54.445 37.244 54.717 36.461 54.943C37.089 54.397 37.694 53.782 38.275 53.109C38.092 52.573 37.97 52.007 37.97 51.41V50.376C35.732 53.542 32.989 55.561 30 55.931V43.031C32.748 43.088 35.426 43.384 37.97 43.881V41.858C35.411 41.38 32.74 41.086 30 41.031V35.203C29.95 35.205 29.902 35.216 29.852 35.216C29.632 35.216 29.406 35.198 29.174 35.164C29.168 35.171 29.162 35.178 29.156 35.185C28.808 35.593 28.397 35.869 28 36.089V41.016C23.904 41.097 19.929 41.674 16.315 42.683C15.109 38.937 14.383 34.616 14.291 30H18.83C19.336 29.485 20.047 29.183 20.867 29.183C21.373 29.183 21.885 29.287 22.382 29.432C22.021 28.91 21.901 28.42 21.896 28H14.292C14.384 23.379 15.112 19.052 16.321 15.303C19.937 16.313 23.907 16.888 28.002 16.969V18.258C28.212 18.371 28.547 17.995 28.701 17.408C28.703 17.41 28.706 17.425 28.708 17.429C28.803 16.785 28.959 16.226 29.142 15.9C29.365 15.503 29.669 15.186 30.002 14.904V2.069C32.904 2.428 35.575 4.34 37.777 7.349C38.129 7.206 38.517 7.094 38.979 7.094C39.399 7.094 39.765 7.192 40.093 7.321C39.001 5.641 37.782 4.202 36.464 3.057C39.756 4.005 42.783 5.573 45.43 7.612C45.437 7.612 45.444 7.611 45.45 7.61C45.552 7.688 45.648 7.773 45.749 7.852C45.864 7.943 45.977 8.036 46.09 8.129C46.418 8.398 46.74 8.675 47.055 8.959C47.147 9.042 47.24 9.122 47.33 9.206C47.412 9.282 47.487 9.366 47.568 9.443C47.364 9.946 47.202 10.574 46.898 10.721C46.359 10.525 47.052 9.301 45.278 9.63C45.446 9.998 46.13 11.295 46.118 11.571C45.888 11.876 45.555 11.544 45.306 11.818C45.134 12.007 44.938 12.448 44.935 12.711C44.933 12.881 45.239 12.903 45.123 13.169C44.835 13.314 44.087 13.074 43.943 13.368C43.997 13.644 44.175 13.775 44.168 13.97C43.855 14.248 43.304 13.662 43.102 13.439C42.652 12.943 42.233 12.604 41.661 12.243C42.044 12.262 42.768 12.309 43.127 12.374C44.95 12.704 45.4 10.953 43.656 10.429C42.334 10.074 40.941 9.999 39.706 9.341C39.061 8.998 38.866 9.033 38.238 9.332C36.535 10.144 35.298 11.186 34.503 12.931C34.135 13.659 33.625 14.347 33.134 14.974C32.617 15.634 31.239 16.254 30.886 16.881C30.553 17.472 30.432 19.842 31.057 20.341C31.755 20.898 32.558 20.034 33.103 19.683C33.346 20.353 33.574 21.029 33.788 21.709C33.901 22.075 34.051 22.691 34.198 22.999C34.395 23.067 34.537 22.975 34.716 22.897C36.336 22.189 35.991 21.294 36.307 19.872L36.733 19.653C36.533 18.632 36.353 18.595 36.082 17.785C36.312 16.976 36.829 16.301 37.242 15.574C37.61 14.927 37.843 14.177 38.472 13.742C38.751 13.946 38.94 14.102 39.199 14.331L39.166 14.387C38.403 15.655 37.616 15.952 38.023 17.652C38.203 18.404 38.818 19.025 39.63 18.734C40.418 18.452 40.643 18.197 41.497 18.194C41.526 18.347 41.611 18.692 41.488 18.809C40.863 19.403 39.955 18.876 39.314 19.652C38.805 20.267 40.242 20.798 39.694 21.256C39.119 21.116 38.54 20.383 38.197 21.661C38.086 22.076 38.197 22.669 38.245 23.1C37.976 23.401 37.868 23.517 37.502 23.687C37.228 23.666 36.668 23.595 36.431 23.61C35.877 23.645 35.352 24.019 34.768 24.177C34.243 24.064 33.109 23.902 32.83 23.487C32.49 22.981 33.531 22.787 32.974 22.031C32.889 21.794 32.868 21.491 32.842 21.237C32.574 21.273 32.075 21.626 31.871 21.805C31.699 21.958 31.634 22.039 31.633 22.281C31.631 23.077 31.82 23.558 31.753 24.383C30.514 24.371 30.206 24.457 29.302 25.363C28.811 25.856 28.153 26.321 27.592 26.733C26.891 27.202 26.537 26.922 25.867 27.579L25.799 27.646C25.283 27.613 24.34 27.485 23.934 27.797C23.783 28.091 24.087 28.403 24.284 28.593C25.159 29.438 25.668 30.124 25.1 31.348C24.997 31.601 24.918 31.74 24.733 31.954L24.682 31.973C24.449 32.06 24.285 32.098 24.03 32.077C23.241 32.015 20.628 30.509 20.139 31.553C20.032 31.782 19.887 32.663 19.809 32.983C19.766 33.161 19.609 33.538 19.531 33.72C19.09 34.741 18.942 35.349 19.188 36.462C19.561 36.629 19.769 36.698 20.177 36.751C21.154 37.87 21.22 37.552 22.549 37.667C24.787 37.862 24.885 36.884 25.683 35.063C26.345 34.613 27.204 34.394 27.639 33.884C27.765 33.737 28.055 33.079 28.249 32.802C28.906 33.093 29.767 33.377 30.48 33.112C30.944 32.94 31.289 32.556 31.681 32.338C32.401 32.969 32.978 33.89 33.688 34.54C34.071 34.89 34.639 35.157 35.063 35.493C35.859 36.122 35.95 36.182 35.912 37.195C35.749 37.204 35.502 37.208 35.347 37.243C35.344 37.243 35.341 37.243 35.338 37.243C34.982 37.248 33.405 37.136 33.383 37.565C33.525 37.815 33.854 37.958 34.116 38.06C34.614 38.253 35.021 38.762 35.475 38.762C35.929 38.762 35.649 38.15 35.689 37.896C35.689 37.894 35.69 37.894 35.691 37.892C35.691 37.894 35.691 37.895 35.691 37.897C35.827 37.866 35.87 37.876 36.012 37.886C36.176 37.816 36.355 37.514 36.436 37.351C36.803 36.609 36.58 36.067 36.36 35.351C36.639 35.58 36.972 36.194 37.307 35.983C37.408 35.811 37.555 35.509 37.344 35.371C36.87 35.06 36.436 34.644 35.979 34.324C35.655 34.097 35.374 34.037 35.059 33.754L35.022 33.72C34.68 33.215 34.035 32.376 33.845 31.838C33.967 31.573 34.191 31.376 34.397 31.173C35.118 32.317 35.778 32.854 36.925 33.565C37.231 33.754 37.752 34.092 38.004 34.334C38.057 34.472 38.099 34.654 38.132 34.802C38.208 35.147 38.357 35.451 38.524 35.746C39.161 34.458 40.298 33.459 41.688 33.024V32.442C41.688 27.074 46.055 22.708 51.422 22.708C52.859 22.708 54.222 23.026 55.451 23.588C55.451 23.59 55.451 23.591 55.452 23.593C56.276 23.97 57.04 24.455 57.722 25.036C55.78 10.913 43.644 0 29 0C13.009 0 0 13.009 0 29C0 44.991 13.009 58 29 58C32.98 58 36.774 57.193 40.23 55.736C39.635 55.317 39.139 54.775 38.758 54.152ZM28 2.069V14.969C24.132 14.889 20.39 14.356 16.987 13.418C19.476 6.985 23.458 2.631 28 2.069ZM21.539 3.057C18.939 5.315 16.721 8.709 15.11 12.868C13.057 12.186 11.183 11.334 9.495 10.36C12.753 6.953 16.889 4.397 21.539 3.057ZM8.137 11.881C10.018 13.006 12.128 13.979 14.443 14.75C13.156 18.689 12.386 23.196 12.291 27.999H2.025C2.249 21.896 4.502 16.302 8.136 11.881H8.137ZM8.123 46.1C4.497 41.681 2.249 36.095 2.025 29.999H12.291C12.386 34.802 13.156 39.309 14.443 43.248C12.131 44.018 10.003 44.976 8.123 46.1ZM9.496 47.64C11.184 46.665 13.058 45.812 15.11 45.131C16.722 49.291 18.939 52.685 21.539 54.943C16.889 53.604 12.753 51.048 9.495 47.641L9.496 47.64ZM28 55.93C23.457 55.368 19.475 51.013 16.987 44.58C20.389 43.642 24.131 43.11 28 43.03V55.93Z" fill="white"/>
<path d="M53.2692 40.8542C52.6892 40.3182 52.0102 40.0982 51.2312 40.1372C51.1412 40.1412 51.0512 40.1472 50.9622 40.1532C49.2532 40.4712 48.2702 42.3042 48.9412 43.8692C49.2472 44.5812 49.5852 44.7382 50.1072 45.2402C49.8912 46.5902 49.4782 47.9142 49.2832 49.3422C50.1212 49.3242 51.0172 49.3412 51.8582 49.3442C52.4542 49.3452 53.0762 49.3382 53.6702 49.3512L53.1802 46.9242C53.0782 46.4272 52.9192 45.7312 52.8852 45.2432C53.6012 44.5032 54.1392 43.8522 54.1132 42.7492C54.1012 42.0292 53.7972 41.3442 53.2692 40.8542Z" fill="white"/>
<path d="M59.5777 34.7791H59.1557V32.4371C59.1557 28.1721 55.6857 24.7031 51.4217 24.7031C47.1577 24.7031 43.6877 28.1731 43.6877 32.4371V34.7791H43.2657C41.4487 34.7791 39.9707 36.2571 39.9707 38.0741V51.4091C39.9707 53.2261 41.4497 54.7041 43.2657 54.7041H59.5777C61.3947 54.7041 62.8727 53.2261 62.8727 51.4091V38.0741C62.8727 36.2571 61.3947 34.7791 59.5777 34.7791ZM45.6877 32.4371C45.6877 29.2751 48.2597 26.7031 51.4217 26.7031C54.5837 26.7031 57.1557 29.2751 57.1557 32.4371V34.7791H45.6867L45.6877 32.4371ZM60.8727 51.4091C60.8727 52.1231 60.2917 52.7041 59.5777 52.7041H43.2657C42.5517 52.7041 41.9707 52.1231 41.9707 51.4091V38.0741C41.9707 37.3601 42.5517 36.7791 43.2657 36.7791H59.5777C60.2917 36.7791 60.8727 37.3601 60.8727 38.0741V51.4091Z" fill="white"/>
</g>
<defs>
<clipPath id="clip0_2942_15">
<rect width="62.872" height="58" fill="white"/>
</clipPath>
</defs>
</svg>
