<svg width="50" height="59" viewBox="0 0 50 59" fill="none" xmlns="http://www.w3.org/2000/svg">
<g clip-path="url(#clip0_2942_2)">
<path d="M38.2647 25.7832C39.2337 25.7832 39.6487 26.3002 39.6487 27.0822C39.6487 27.9312 39.0827 28.6472 38.1257 29.6812L35.4577 32.5452V33.7522H41.8007V32.1742H37.7867L39.6747 30.2782C40.9327 29.0322 41.4487 27.9442 41.4487 26.9372C41.4487 25.3192 40.3037 24.3252 38.3777 24.3252C36.4897 24.3252 35.2947 25.3862 35.2188 27.5602H36.8298C36.9428 26.3002 37.5217 25.7832 38.2647 25.7832Z" fill="white"/>
<path d="M28.4463 33.8972C30.7493 33.8972 32.2843 32.5982 32.5363 30.2642H30.7993C30.5983 31.5502 29.7293 32.2792 28.4713 32.2792C26.7593 32.2792 25.8663 30.9402 25.8663 29.0842C25.8663 27.2542 26.8353 25.9422 28.4713 25.9422C29.6543 25.9422 30.6103 26.6452 30.8373 28.1562H32.5863C32.3723 25.6632 30.6353 24.3242 28.4083 24.3242C25.8033 24.3242 24.0293 26.3002 24.0293 29.0842C24.0293 31.9082 25.7033 33.8972 28.4463 33.8972Z" fill="white"/>
<path d="M19.0073 24.3242C16.3773 24.3242 14.5273 26.2202 14.5273 29.0842C14.5273 31.9742 16.3903 33.8972 19.0203 33.8972C21.6503 33.8972 23.5003 31.9752 23.5003 29.0842C23.5003 26.2202 21.6373 24.3242 19.0073 24.3242ZM19.0073 32.2662C17.3963 32.2662 16.3643 31.0332 16.3643 29.0842C16.3643 27.1752 17.3963 25.9552 19.0073 25.9552C20.6303 25.9552 21.6623 27.1752 21.6623 29.0842C21.6623 31.0332 20.6303 32.2662 19.0073 32.2662Z" fill="white"/>
<path d="M9.30289 26.9631C9.30289 26.1941 9.84389 25.7301 10.7119 25.7301C11.6559 25.7301 12.2849 26.2741 12.2849 27.1881H13.8829C13.8829 25.4381 12.6249 24.3511 10.5979 24.3511C8.69789 24.3511 7.52689 25.3981 7.52689 27.0961C7.52689 30.6891 12.2209 29.0721 12.2209 31.2861C12.2209 32.0681 11.6299 32.5061 10.7489 32.5061C9.69189 32.5061 9.01189 31.8961 9.01189 30.9281H7.33789C7.33789 32.7451 8.53289 33.9111 10.7609 33.9111C12.7739 33.9111 14.0079 32.9171 14.0079 31.0871C14.0079 27.4411 9.30089 29.1781 9.30089 26.9641L9.30289 26.9631Z" fill="white"/>
<path d="M48.14 8.78424C36.232 8.78424 25.297 0.300238 25.188 0.214238C24.826 -0.0707617 24.314 -0.0707617 23.952 0.214238C23.843 0.300238 12.909 8.78424 1 8.78424C0.448 8.78424 0 9.23224 0 9.78424V25.9552C0 48.5312 23.969 58.0192 24.211 58.1122C24.327 58.1562 24.449 58.1792 24.57 58.1792C24.691 58.1792 24.814 58.1572 24.929 58.1122C25.171 58.0192 49.139 48.5302 49.139 25.9552V9.78424C49.139 9.23224 48.692 8.78424 48.14 8.78424ZM47.14 25.9552C47.14 45.6692 27.492 54.8432 24.57 56.0972C21.649 54.8442 2 45.6692 2 25.9552V10.7662C12.682 10.3872 22.094 4.05624 24.57 2.25024C27.047 4.05624 36.458 10.3862 47.14 10.7662V25.9552Z" fill="white"/>
</g>
<defs>
<clipPath id="clip0_2942_2">
<rect width="49.14" height="58.179" fill="white"/>
</clipPath>
</defs>
</svg>
