<svg width="3102" height="871" viewBox="0 0 3102 871" fill="none" xmlns="http://www.w3.org/2000/svg">
<path d="M1226.5 367.396H1150.26C1148.09 354.894 1144.08 343.819 1138.24 334.17C1132.39 324.386 1125.12 316.097 1116.43 309.303C1107.73 302.508 1097.81 297.412 1086.67 294.015C1075.66 290.482 1063.77 288.715 1051 288.715C1028.3 288.715 1008.19 294.423 990.661 305.837C973.131 317.116 959.406 333.695 949.486 355.573C939.566 377.316 934.606 403.882 934.606 435.273C934.606 467.207 939.566 494.113 949.486 515.991C959.542 537.734 973.267 554.177 990.661 565.32C1008.19 576.327 1028.23 581.83 1050.79 581.83C1063.29 581.83 1074.98 580.2 1085.85 576.938C1096.86 573.541 1106.71 568.581 1115.41 562.058C1124.24 555.536 1131.65 547.518 1137.63 538.006C1143.74 528.493 1147.95 517.622 1150.26 505.392L1226.5 505.8C1223.64 525.64 1217.46 544.257 1207.95 561.651C1198.57 579.045 1186.27 594.4 1171.05 607.717C1155.84 620.899 1138.03 631.226 1117.65 638.7C1097.27 646.038 1074.64 649.707 1049.77 649.707C1013.08 649.707 980.333 641.214 951.524 624.228C922.715 607.242 900.022 582.714 883.443 550.643C866.865 518.573 858.575 480.116 858.575 435.273C858.575 390.293 866.933 351.836 883.647 319.902C900.362 287.832 923.123 263.304 951.932 246.317C980.741 229.331 1013.35 220.838 1049.77 220.838C1073.01 220.838 1094.62 224.099 1114.59 230.622C1134.57 237.145 1152.37 246.725 1168 259.363C1183.62 271.865 1196.47 287.22 1206.52 305.43C1216.71 323.503 1223.37 344.158 1226.5 367.396ZM1668.77 435.273C1668.77 480.252 1660.34 518.777 1643.49 550.847C1626.78 582.781 1603.95 607.242 1575.01 624.228C1546.2 641.214 1513.51 649.707 1476.96 649.707C1440.41 649.707 1407.66 641.214 1378.71 624.228C1349.9 607.106 1327.07 582.578 1310.22 550.643C1293.51 518.573 1285.15 480.116 1285.15 435.273C1285.15 390.293 1293.51 351.836 1310.22 319.902C1327.07 287.832 1349.9 263.304 1378.71 246.317C1407.66 229.331 1440.41 220.838 1476.96 220.838C1513.51 220.838 1546.2 229.331 1575.01 246.317C1603.95 263.304 1626.78 287.832 1643.49 319.902C1660.34 351.836 1668.77 390.293 1668.77 435.273ZM1592.74 435.273C1592.74 403.61 1587.78 376.908 1577.86 355.165C1568.07 333.287 1554.49 316.777 1537.09 305.634C1519.7 294.355 1499.65 288.715 1476.96 288.715C1454.27 288.715 1434.22 294.355 1416.83 305.634C1399.44 316.777 1385.78 333.287 1375.86 355.165C1366.07 376.908 1361.18 403.61 1361.18 435.273C1361.18 466.935 1366.07 493.705 1375.86 515.584C1385.78 537.326 1399.44 553.837 1416.83 565.116C1434.22 576.259 1454.27 581.83 1476.96 581.83C1499.65 581.83 1519.7 576.259 1537.09 565.116C1554.49 553.837 1568.07 537.326 1577.86 515.584C1587.78 493.705 1592.74 466.935 1592.74 435.273ZM1771.45 644H1690.73L1837.7 226.545H1931.05L2078.22 644H1997.5L1886.01 312.156H1882.75L1771.45 644ZM1774.1 480.32H1994.24V541.063H1774.1V480.32ZM2470.91 367.396H2394.68C2392.5 354.894 2388.49 343.819 2382.65 334.17C2376.81 324.386 2369.54 316.097 2360.84 309.303C2352.14 302.508 2342.22 297.412 2331.08 294.015C2320.07 290.482 2308.18 288.715 2295.41 288.715C2272.72 288.715 2252.6 294.423 2235.07 305.837C2217.54 317.116 2203.82 333.695 2193.9 355.573C2183.98 377.316 2179.02 403.882 2179.02 435.273C2179.02 467.207 2183.98 494.113 2193.9 515.991C2203.96 537.734 2217.68 554.177 2235.07 565.32C2252.6 576.327 2272.65 581.83 2295.21 581.83C2307.71 581.83 2319.39 580.2 2330.27 576.938C2341.27 573.541 2351.12 568.581 2359.82 562.058C2368.65 555.536 2376.06 547.518 2382.04 538.006C2388.15 528.493 2392.37 517.622 2394.68 505.392L2470.91 505.8C2468.06 525.64 2461.88 544.257 2452.36 561.651C2442.99 579.045 2430.69 594.4 2415.47 607.717C2400.25 620.899 2382.45 631.226 2362.06 638.7C2341.68 646.038 2319.05 649.707 2294.19 649.707C2257.5 649.707 2224.75 641.214 2195.94 624.228C2167.13 607.242 2144.44 582.714 2127.86 550.643C2111.28 518.573 2102.99 480.116 2102.99 435.273C2102.99 390.293 2111.35 351.836 2128.06 319.902C2144.78 287.832 2167.54 263.304 2196.35 246.317C2225.15 229.331 2257.77 220.838 2294.19 220.838C2317.42 220.838 2339.03 224.099 2359.01 230.622C2378.98 237.145 2396.78 246.725 2412.41 259.363C2428.04 271.865 2440.88 287.22 2450.94 305.43C2461.13 323.503 2467.79 344.158 2470.91 367.396ZM2540.16 644V226.545H2615.79V403.271H2809.23V226.545H2885.05V644H2809.23V466.663H2615.79V644H2540.16Z" fill="white"/>
<path d="M181.803 268.655C197.519 220.938 245.081 186.404 295.228 185.266C353.543 184.749 411.909 185.163 470.224 185.06C470.121 267.828 470.225 350.544 470.173 433.261C413.564 433.209 356.955 433.157 300.346 433.261C259.298 434.656 218.611 412.995 196.071 378.823C174.306 347.029 169.137 304.947 181.803 268.655Z" fill="#D6FD3A"/>
<path d="M322.668 702.459C322.616 619.639 322.41 536.819 322.72 453.999C382.327 454.671 441.935 453.689 501.491 454.464C563.373 457.256 617.035 512.211 617.656 574.3C621.585 638.922 566.63 699.925 501.801 702.2C442.09 702.769 382.379 702.148 322.668 702.459Z" fill="#D6FD3A"/>
<path d="M669.101 623.298C698.517 609.288 734.344 640.927 724.263 671.894C718.214 700.897 678.252 712.735 657.159 692.263C634.257 673.859 641.339 632.862 669.101 623.298Z" fill="#D6FD3A"/>
</svg>
