<svg width="551" height="518" viewBox="0 0 551 518" fill="none" xmlns="http://www.w3.org/2000/svg">
<path d="M6.8026 83.6549C22.5187 35.9378 70.0807 1.40373 120.228 0.266382C178.543 -0.250596 236.909 0.162991 295.224 0.0595959C295.121 82.8277 295.225 165.544 295.173 248.261C238.564 248.209 181.955 248.157 125.346 248.261C84.2975 249.656 43.6114 227.995 21.0712 193.823C-0.693587 162.029 -5.86336 119.947 6.8026 83.6549Z" fill="#D6FD3A"/>
<path d="M147.668 517.459C147.616 434.639 147.41 351.819 147.72 268.999C207.327 269.671 266.935 268.689 326.491 269.464C388.373 272.256 442.035 327.211 442.656 389.3C446.585 453.922 391.63 514.925 326.801 517.2C267.09 517.769 207.379 517.148 147.668 517.459Z" fill="#D6FD3A"/>
<path d="M494.101 438.298C523.517 424.288 559.344 455.927 549.263 486.894C543.214 515.897 503.252 527.735 482.159 507.263C459.257 488.859 466.339 447.862 494.101 438.298Z" fill="#D6FD3A"/>
</svg>
