<svg width="5970" height="1007" viewBox="0 0 5970 1007" fill="none" xmlns="http://www.w3.org/2000/svg">
<path d="M1082.04 409.305C1080.14 391.503 1072.12 377.642 1057.99 367.722C1043.99 357.802 1025.78 352.842 1003.36 352.842C987.6 352.842 974.079 355.22 962.8 359.977C951.521 364.733 942.892 371.187 936.913 379.341C930.933 387.494 927.876 396.803 927.74 407.266C927.74 415.963 929.71 423.505 933.651 429.892C937.728 436.279 943.232 441.714 950.162 446.199C957.092 450.547 964.77 454.216 973.195 457.206C981.621 460.196 990.114 462.71 998.675 464.748L1037.81 474.532C1053.57 478.201 1068.73 483.161 1083.27 489.412C1097.94 495.663 1111.06 503.545 1122.61 513.057C1134.29 522.569 1143.53 534.052 1150.33 547.505C1157.12 560.958 1160.52 576.721 1160.52 594.795C1160.52 619.255 1154.27 640.794 1141.77 659.411C1129.27 677.892 1111.19 692.364 1087.55 702.827C1064.04 713.155 1035.57 718.319 1002.14 718.319C969.662 718.319 941.465 713.291 917.548 703.235C893.768 693.179 875.151 678.503 861.697 659.207C848.38 639.91 841.178 616.401 840.091 588.68H914.491C915.578 603.22 920.062 615.314 927.944 624.962C935.826 634.611 946.085 641.813 958.723 646.569C971.497 651.325 985.765 653.703 1001.53 653.703C1017.97 653.703 1032.38 651.257 1044.74 646.365C1057.24 641.337 1067.03 634.407 1074.09 625.574C1081.16 616.605 1084.76 606.142 1084.9 594.183C1084.76 583.312 1081.57 574.343 1075.32 567.277C1069.07 560.075 1060.3 554.096 1049.02 549.339C1037.88 544.447 1024.83 540.099 1009.89 536.294L962.392 524.064C928.012 515.231 900.834 501.846 880.858 483.908C861.018 465.835 851.098 441.85 851.098 411.955C851.098 387.358 857.757 365.82 871.074 347.339C884.527 328.858 902.804 314.521 925.906 304.33C949.007 294.002 975.166 288.838 1004.38 288.838C1034.01 288.838 1059.96 294.002 1082.25 304.33C1104.67 314.521 1122.27 328.722 1135.04 346.931C1147.81 365.004 1154.4 385.796 1154.81 409.305H1082.04ZM1491.09 294.545H1566.71V567.277C1566.71 597.173 1559.65 623.468 1545.51 646.161C1531.52 668.855 1511.81 686.589 1486.4 699.362C1460.99 712 1431.3 718.319 1397.33 718.319C1363.22 718.319 1333.46 712 1308.05 699.362C1282.63 686.589 1262.93 668.855 1248.93 646.161C1234.94 623.468 1227.94 597.173 1227.94 567.277V294.545H1303.56V560.958C1303.56 578.352 1307.37 593.844 1314.98 607.433C1322.72 621.022 1333.59 631.689 1347.59 639.435C1361.59 647.045 1378.16 650.849 1397.33 650.849C1416.49 650.849 1433.06 647.045 1447.06 639.435C1461.19 631.689 1472.07 621.022 1479.67 607.433C1487.28 593.844 1491.09 578.352 1491.09 560.958V294.545ZM1648.91 712V294.545H1805.45C1837.52 294.545 1864.43 300.525 1886.17 312.483C1908.05 324.441 1924.56 340.884 1935.71 361.811C1946.98 382.602 1952.62 406.247 1952.62 432.746C1952.62 459.516 1946.98 483.297 1935.71 504.088C1924.43 524.879 1907.78 541.254 1885.77 553.212C1863.75 565.035 1836.64 570.946 1804.44 570.946H1700.68V508.776H1794.24C1813 508.776 1828.35 505.515 1840.31 498.992C1852.27 492.469 1861.1 483.501 1866.81 472.086C1872.65 460.671 1875.57 447.558 1875.57 432.746C1875.57 417.934 1872.65 404.888 1866.81 393.609C1861.1 382.33 1852.2 373.566 1840.11 367.315C1828.15 360.928 1812.72 357.734 1793.84 357.734H1724.53V712H1648.91ZM2018.31 712V294.545H2174.85C2206.93 294.545 2233.83 300.117 2255.57 311.26C2277.45 322.403 2293.96 338.03 2305.11 358.142C2316.38 378.118 2322.02 401.423 2322.02 428.058C2322.02 454.828 2316.32 478.065 2304.9 497.769C2293.62 517.337 2276.98 532.489 2254.96 543.224C2232.95 553.824 2205.91 559.124 2173.84 559.124H2062.34V496.342H2163.64C2182.4 496.342 2197.75 493.76 2209.71 488.597C2221.67 483.297 2230.5 475.619 2236.21 465.563C2242.05 455.371 2244.97 442.87 2244.97 428.058C2244.97 413.245 2242.05 400.608 2236.21 390.144C2230.37 379.545 2221.47 371.527 2209.51 366.092C2197.55 360.52 2182.13 357.734 2163.24 357.734H2093.93V712H2018.31ZM2233.97 522.841L2337.31 712H2252.92L2151.41 522.841H2233.97ZM2391.63 712V294.545H2663.14V357.938H2467.26V471.271H2649.08V534.663H2467.26V648.607H2664.77V712H2391.63ZM2740.29 294.545H2832.84L2956.77 597.037H2961.66L3085.59 294.545H3178.13V712H3105.57V425.204H3101.69L2986.32 710.777H2932.1L2816.73 424.592H2812.86V712H2740.29V294.545ZM3260.48 712V294.545H3531.99V357.938H3336.1V471.271H3517.93V534.663H3336.1V648.607H3533.62V712H3260.48ZM4108.84 435.396H4032.61C4030.43 422.894 4026.43 411.819 4020.58 402.17C4014.74 392.386 4007.47 384.097 3998.77 377.303C3990.08 370.508 3980.16 365.412 3969.01 362.015C3958.01 358.482 3946.12 356.715 3933.34 356.715C3910.65 356.715 3890.54 362.423 3873.01 373.837C3855.48 385.116 3841.75 401.695 3831.83 423.573C3821.91 445.316 3816.95 471.882 3816.95 503.273C3816.95 535.207 3821.91 562.113 3831.83 583.991C3841.89 605.734 3855.61 622.177 3873.01 633.32C3890.54 644.327 3910.58 649.83 3933.14 649.83C3945.64 649.83 3957.33 648.2 3968.2 644.938C3979.2 641.541 3989.06 636.581 3997.75 630.058C4006.59 623.536 4013.99 615.518 4019.97 606.006C4026.09 596.493 4030.3 585.622 4032.61 573.392L4108.84 573.8C4105.99 593.64 4099.81 612.257 4090.29 629.651C4080.92 647.045 4068.62 662.4 4053.4 675.717C4038.18 688.899 4020.38 699.226 4000 706.7C3979.61 714.038 3956.99 717.707 3932.12 717.707C3895.43 717.707 3862.68 709.214 3833.87 692.228C3805.06 675.242 3782.37 650.714 3765.79 618.643C3749.21 586.573 3740.92 548.116 3740.92 503.273C3740.92 458.293 3749.28 419.836 3765.99 387.902C3782.71 355.832 3805.47 331.304 3834.28 314.317C3863.09 297.331 3895.7 288.838 3932.12 288.838C3955.36 288.838 3976.96 292.099 3996.94 298.622C4016.91 305.145 4034.72 314.725 4050.34 327.363C4065.97 339.865 4078.81 355.22 4088.87 373.43C4099.06 391.503 4105.72 412.158 4108.84 435.396ZM4551.12 503.273C4551.12 548.252 4542.69 586.777 4525.84 618.847C4509.13 650.781 4486.3 675.242 4457.35 692.228C4428.54 709.214 4395.86 717.707 4359.31 717.707C4322.75 717.707 4290 709.214 4261.06 692.228C4232.25 675.106 4209.42 650.578 4192.57 618.643C4175.85 586.573 4167.5 548.116 4167.5 503.273C4167.5 458.293 4175.85 419.836 4192.57 387.902C4209.42 355.832 4232.25 331.304 4261.06 314.317C4290 297.331 4322.75 288.838 4359.31 288.838C4395.86 288.838 4428.54 297.331 4457.35 314.317C4486.3 331.304 4509.13 355.832 4525.84 387.902C4542.69 419.836 4551.12 458.293 4551.12 503.273ZM4475.08 503.273C4475.08 471.61 4470.12 444.908 4460.2 423.165C4450.42 401.287 4436.83 384.777 4419.44 373.634C4402.04 362.355 4382 356.715 4359.31 356.715C4336.61 356.715 4316.57 362.355 4299.17 373.634C4281.78 384.777 4268.12 401.287 4258.2 423.165C4248.42 444.908 4243.53 471.61 4243.53 503.273C4243.53 534.935 4248.42 561.705 4258.2 583.584C4268.12 605.326 4281.78 621.837 4299.17 633.116C4316.57 644.259 4336.61 649.83 4359.31 649.83C4382 649.83 4402.04 644.259 4419.44 633.116C4436.83 621.837 4450.42 605.326 4460.2 583.584C4470.12 561.705 4475.08 534.935 4475.08 503.273ZM4653.8 712H4573.08L4720.04 294.545H4813.4L4960.57 712H4879.85L4768.35 380.156H4765.09L4653.8 712ZM4656.45 548.32H4876.59V609.063H4656.45V548.32ZM5353.26 435.396H5277.02C5274.85 422.894 5270.84 411.819 5265 402.17C5259.15 392.386 5251.88 384.097 5243.19 377.303C5234.49 370.508 5224.57 365.412 5213.43 362.015C5202.42 358.482 5190.53 356.715 5177.76 356.715C5155.06 356.715 5134.95 362.423 5117.42 373.837C5099.89 385.116 5086.17 401.695 5076.25 423.573C5066.33 445.316 5061.37 471.882 5061.37 503.273C5061.37 535.207 5066.33 562.113 5076.25 583.991C5086.3 605.734 5100.03 622.177 5117.42 633.32C5134.95 644.327 5154.99 649.83 5177.55 649.83C5190.05 649.83 5201.74 648.2 5212.61 644.938C5223.62 641.541 5233.47 636.581 5242.17 630.058C5251 623.536 5258.41 615.518 5264.39 606.006C5270.5 596.493 5274.71 585.622 5277.02 573.392L5353.26 573.8C5350.4 593.64 5344.22 612.257 5334.71 629.651C5325.33 647.045 5313.03 662.4 5297.81 675.717C5282.59 688.899 5264.79 699.226 5244.41 706.7C5224.03 714.038 5201.4 717.707 5176.53 717.707C5139.84 717.707 5107.09 709.214 5078.28 692.228C5049.48 675.242 5026.78 650.714 5010.2 618.643C4993.62 586.573 4985.34 548.116 4985.34 503.273C4985.34 458.293 4993.69 419.836 5010.41 387.902C5027.12 355.832 5049.88 331.304 5078.69 314.317C5107.5 297.331 5140.11 288.838 5176.53 288.838C5199.77 288.838 5221.38 292.099 5241.35 298.622C5261.33 305.145 5279.13 314.725 5294.76 327.363C5310.38 339.865 5323.23 355.22 5333.28 373.43C5343.47 391.503 5350.13 412.158 5353.26 435.396ZM5422.51 712V294.545H5498.13V471.271H5691.57V294.545H5767.4V712H5691.57V534.663H5498.13V712H5422.51Z" fill="white"/>
<path d="M167.803 336.655C183.519 288.938 231.081 254.404 281.228 253.266C339.543 252.749 397.909 253.163 456.224 253.06C456.121 335.828 456.225 418.544 456.173 501.261C399.564 501.209 342.955 501.157 286.346 501.261C245.298 502.656 204.611 480.995 182.071 446.823C160.306 415.029 155.137 372.947 167.803 336.655Z" fill="#D6FD3A"/>
<path d="M308.668 770.459C308.616 687.639 308.41 604.819 308.72 521.999C368.327 522.671 427.935 521.689 487.491 522.464C549.373 525.256 603.035 580.211 603.656 642.3C607.585 706.922 552.63 767.925 487.801 770.2C428.09 770.769 368.379 770.148 308.668 770.459Z" fill="#D6FD3A"/>
<path d="M655.101 691.298C684.517 677.288 720.344 708.927 710.263 739.894C704.214 768.897 664.252 780.735 643.159 760.263C620.257 741.859 627.339 700.862 655.101 691.298Z" fill="#D6FD3A"/>
</svg>
