<svg width="1080" height="1080" viewBox="0 0 1080 1080" fill="none" xmlns="http://www.w3.org/2000/svg">
<circle cx="540" cy="540" r="540" fill="#D6FD3A"/>
<path d="M271.803 364.655C287.519 316.938 335.081 282.404 385.228 281.266C443.543 280.749 501.909 281.163 560.224 281.06C560.121 363.828 560.225 446.544 560.173 529.261C503.564 529.209 446.955 529.157 390.346 529.261C349.298 530.656 308.611 508.995 286.071 474.823C264.306 443.029 259.137 400.947 271.803 364.655Z" fill="black"/>
<path d="M412.668 798.459C412.616 715.639 412.41 632.819 412.72 549.999C472.327 550.671 531.935 549.689 591.491 550.464C653.373 553.256 707.035 608.211 707.656 670.3C711.585 734.922 656.63 795.925 591.801 798.2C532.09 798.769 472.379 798.148 412.668 798.459Z" fill="black"/>
<path d="M759.101 719.298C788.517 705.288 824.344 736.927 814.263 767.894C808.214 796.897 768.252 808.735 747.159 788.263C724.257 769.859 731.339 728.862 759.101 719.298Z" fill="black"/>
</svg>
