<svg width="4096" height="1100" viewBox="0 0 4096 1100" fill="none" xmlns="http://www.w3.org/2000/svg">
<path d="M1695.5 482.396H1619.26C1617.09 469.894 1613.08 458.819 1607.24 449.17C1601.39 439.386 1594.12 431.097 1585.43 424.303C1576.73 417.508 1566.81 412.412 1555.67 409.015C1544.66 405.482 1532.77 403.715 1520 403.715C1497.3 403.715 1477.19 409.423 1459.66 420.837C1442.13 432.116 1428.41 448.695 1418.49 470.573C1408.57 492.316 1403.61 518.882 1403.61 550.273C1403.61 582.207 1408.57 609.113 1418.49 630.991C1428.54 652.734 1442.27 669.177 1459.66 680.32C1477.19 691.327 1497.23 696.83 1519.79 696.83C1532.29 696.83 1543.98 695.2 1554.85 691.938C1565.86 688.541 1575.71 683.581 1584.41 677.058C1593.24 670.536 1600.65 662.518 1606.63 653.006C1612.74 643.493 1616.95 632.622 1619.26 620.392L1695.5 620.8C1692.64 640.64 1686.46 659.257 1676.95 676.651C1667.57 694.045 1655.27 709.4 1640.05 722.717C1624.84 735.899 1607.03 746.226 1586.65 753.7C1566.27 761.038 1543.64 764.707 1518.77 764.707C1482.08 764.707 1449.33 756.214 1420.52 739.228C1391.72 722.242 1369.02 697.714 1352.44 665.643C1335.86 633.573 1327.58 595.116 1327.58 550.273C1327.58 505.293 1335.93 466.836 1352.65 434.902C1369.36 402.832 1392.12 378.304 1420.93 361.317C1449.74 344.331 1482.35 335.838 1518.77 335.838C1542.01 335.838 1563.62 339.099 1583.59 345.622C1603.57 352.145 1621.37 361.725 1637 374.363C1652.62 386.865 1665.47 402.22 1675.52 420.43C1685.71 438.503 1692.37 459.158 1695.5 482.396ZM2137.77 550.273C2137.77 595.252 2129.34 633.777 2112.49 665.847C2095.78 697.781 2072.95 722.242 2044.01 739.228C2015.2 756.214 1982.51 764.707 1945.96 764.707C1909.41 764.707 1876.66 756.214 1847.71 739.228C1818.9 722.106 1796.07 697.578 1779.22 665.643C1762.51 633.573 1754.15 595.116 1754.15 550.273C1754.15 505.293 1762.51 466.836 1779.22 434.902C1796.07 402.832 1818.9 378.304 1847.71 361.317C1876.66 344.331 1909.41 335.838 1945.96 335.838C1982.51 335.838 2015.2 344.331 2044.01 361.317C2072.95 378.304 2095.78 402.832 2112.49 434.902C2129.34 466.836 2137.77 505.293 2137.77 550.273ZM2061.74 550.273C2061.74 518.61 2056.78 491.908 2046.86 470.165C2037.07 448.287 2023.49 431.777 2006.09 420.634C1988.7 409.355 1968.65 403.715 1945.96 403.715C1923.27 403.715 1903.22 409.355 1885.83 420.634C1868.44 431.777 1854.78 448.287 1844.86 470.165C1835.07 491.908 1830.18 518.61 1830.18 550.273C1830.18 581.935 1835.07 608.705 1844.86 630.584C1854.78 652.326 1868.44 668.837 1885.83 680.116C1903.22 691.259 1923.27 696.83 1945.96 696.83C1968.65 696.83 1988.7 691.259 2006.09 680.116C2023.49 668.837 2037.07 652.326 2046.86 630.584C2056.78 608.705 2061.74 581.935 2061.74 550.273ZM2240.45 759H2159.73L2306.7 341.545H2400.05L2547.22 759H2466.5L2355.01 427.156H2351.75L2240.45 759ZM2243.1 595.32H2463.24V656.063H2243.1V595.32ZM2939.91 482.396H2863.68C2861.5 469.894 2857.49 458.819 2851.65 449.17C2845.81 439.386 2838.54 431.097 2829.84 424.303C2821.14 417.508 2811.22 412.412 2800.08 409.015C2789.07 405.482 2777.18 403.715 2764.41 403.715C2741.72 403.715 2721.6 409.423 2704.07 420.837C2686.54 432.116 2672.82 448.695 2662.9 470.573C2652.98 492.316 2648.02 518.882 2648.02 550.273C2648.02 582.207 2652.98 609.113 2662.9 630.991C2672.96 652.734 2686.68 669.177 2704.07 680.32C2721.6 691.327 2741.65 696.83 2764.21 696.83C2776.71 696.83 2788.39 695.2 2799.27 691.938C2810.27 688.541 2820.12 683.581 2828.82 677.058C2837.65 670.536 2845.06 662.518 2851.04 653.006C2857.15 643.493 2861.37 632.622 2863.68 620.392L2939.91 620.8C2937.06 640.64 2930.88 659.257 2921.36 676.651C2911.99 694.045 2899.69 709.4 2884.47 722.717C2869.25 735.899 2851.45 746.226 2831.06 753.7C2810.68 761.038 2788.05 764.707 2763.19 764.707C2726.5 764.707 2693.75 756.214 2664.94 739.228C2636.13 722.242 2613.44 697.714 2596.86 665.643C2580.28 633.573 2571.99 595.116 2571.99 550.273C2571.99 505.293 2580.35 466.836 2597.06 434.902C2613.78 402.832 2636.54 378.304 2665.35 361.317C2694.15 344.331 2726.77 335.838 2763.19 335.838C2786.42 335.838 2808.03 339.099 2828.01 345.622C2847.98 352.145 2865.78 361.725 2881.41 374.363C2897.04 386.865 2909.88 402.22 2919.94 420.43C2930.13 438.503 2936.79 459.158 2939.91 482.396ZM3009.16 759V341.545H3084.79V518.271H3278.23V341.545H3354.05V759H3278.23V581.663H3084.79V759H3009.16Z" fill="#D6FD3A"/>
<path d="M650.803 383.655C666.519 335.938 714.081 301.404 764.228 300.266C822.543 299.749 880.909 300.163 939.224 300.06C939.121 382.828 939.225 465.544 939.173 548.261C882.564 548.209 825.955 548.157 769.346 548.261C728.298 549.656 687.611 527.995 665.071 493.823C643.306 462.029 638.137 419.947 650.803 383.655Z" fill="#D6FD3A"/>
<path d="M791.668 817.459C791.616 734.639 791.41 651.819 791.72 568.999C851.327 569.671 910.935 568.689 970.491 569.464C1032.37 572.256 1086.04 627.211 1086.66 689.3C1090.58 753.922 1035.63 814.925 970.801 817.2C911.09 817.769 851.379 817.148 791.668 817.459Z" fill="#D6FD3A"/>
<path d="M1138.1 738.298C1167.52 724.288 1203.34 755.927 1193.26 786.894C1187.21 815.897 1147.25 827.735 1126.16 807.263C1103.26 788.859 1110.34 747.862 1138.1 738.298Z" fill="#D6FD3A"/>
</svg>
